# Blender 3.5.0
# www.blender.org
mtllib spin.mtl
o Ground
v -3.000000 0.000000 0.002774
v -2.908756 0.252751 0.000000
v -2.764796 0.433015 0.000000
v -2.575276 0.548752 0.000000
v -2.347349 0.607922 0.000000
v -2.088173 0.618484 0.000000
v -1.804902 0.588397 0.000000
v -1.504692 0.525622 0.000000
v -1.194699 0.438118 0.000000
v -0.882077 0.333844 0.000000
v -0.573983 0.220760 0.000000
v -0.277572 0.106825 0.000000
v 0.000000 0.000000 0.000000
v 0.180121 -0.067184 0.000509
v 0.379794 -0.137252 0.001852
v 0.596965 -0.205675 0.003750
v 0.829580 -0.267922 0.005925
v 1.075585 -0.319463 0.008101
v 1.332926 -0.355770 0.009999
v 1.599548 -0.372312 0.011341
v 1.873399 -0.364558 0.011850
v 2.152424 -0.327980 0.011249
v 2.434568 -0.258048 0.009258
v 2.717778 -0.150231 0.005601
v 3.000000 0.000000 0.000000
v -2.850017 -0.073923 2.996823
v -2.758773 0.178828 2.996823
v -2.614813 0.359092 2.996823
v -2.425292 0.474829 2.996823
v -2.197366 0.533998 2.996823
v -1.938189 0.544560 2.996823
v -1.654918 0.514474 2.996823
v -1.354708 0.451699 2.996823
v -1.044715 0.364194 2.996823
v -0.732094 0.259920 2.996823
v -0.424000 0.146836 2.996823
v -0.127589 0.032902 2.996823
v 0.149984 -0.073923 2.996823
v 0.330104 -0.141107 2.997332
v 0.529777 -0.211175 2.998674
v 0.746948 -0.279598 3.000572
v 0.979563 -0.341845 3.002748
v 1.225568 -0.393387 3.004924
v 1.482909 -0.429693 3.006822
v 1.749532 -0.446235 3.008164
v 2.023383 -0.438482 3.008673
v 2.302407 -0.401904 3.008071
v 2.584551 -0.331971 3.006081
v 2.867762 -0.224154 3.002424
v 3.149983 -0.073923 2.996823
v -2.422257 -0.073923 3.352046
v -2.331837 0.178828 3.339807
v -2.189179 0.359092 3.320495
v -2.001371 0.474829 3.295073
v -1.775504 0.533998 3.264498
v -1.518670 0.544560 3.229731
v -1.237960 0.514474 3.191733
v -0.940463 0.451699 3.151462
v -0.633271 0.364194 3.109878
v -0.323475 0.259920 3.067942
v -0.018166 0.146836 3.026614
v 0.275566 0.032902 2.986853
v 0.550630 -0.073923 2.949618
v 0.729191 -0.141107 2.925961
v 0.927239 -0.211175 2.900507
v 1.142702 -0.279598 2.873255
v 1.373507 -0.341845 2.844208
v 1.617580 -0.393387 2.813364
v 1.872850 -0.429693 2.780725
v 2.137243 -0.446235 2.746289
v -1.950712 -0.073923 3.646678
v -1.862752 0.178828 3.622420
v -1.723973 0.359092 3.584147
v -1.541273 0.474829 3.533761
v -1.321549 0.533998 3.473164
v -1.071700 0.544560 3.404259
v -0.798624 0.514474 3.328949
v -0.509218 0.451699 3.249135
v -0.210381 0.364194 3.166720
v 0.090990 0.259920 3.083606
v 0.387996 0.146836 3.001696
v 0.673740 0.032902 2.922892
v 0.941323 -0.073923 2.849097
v 1.115096 -0.141107 2.801701
v 1.307940 -0.211175 2.749910
v 1.517800 -0.279598 2.694002
v 1.742622 -0.341845 2.634257
v 1.980352 -0.393387 2.570951
v 2.228937 -0.429693 2.504364
v -1.443907 -0.073923 3.875394
v -1.359996 0.178828 3.839555
v -1.227605 0.359092 3.783012
v -1.053315 0.474829 3.708573
v -0.843705 0.533998 3.619050
v -0.605358 0.544560 3.517252
v -0.344852 0.514474 3.405991
v -0.068768 0.451699 3.288077
v 0.216313 0.364194 3.166320
v 0.503811 0.259920 3.043531
v 0.787145 0.146836 2.922520
v 1.059735 0.032902 2.806098
v 1.315000 -0.073923 2.697075
v 1.480846 -0.141107 2.626797
v 1.664999 -0.211175 2.549606
v 1.865463 -0.279598 2.466052
v 2.080239 -0.341845 2.376688
v 2.307328 -0.393387 2.282065
v -0.911001 -0.073923 4.034058
v -0.832656 0.178828 3.987287
v -0.709047 0.359092 3.913495
v -0.546317 0.474829 3.816350
v -0.350611 0.533998 3.699517
v -0.128073 0.544560 3.566668
v 0.115154 0.514474 3.421468
v 0.372925 0.451699 3.267584
v 0.639096 0.364194 3.108686
v 0.907524 0.259920 2.948441
v 1.172065 0.146836 2.790517
v 1.426574 0.032902 2.638581
v 1.664908 -0.073923 2.496302
v 1.819827 -0.141107 2.404412
v 1.991962 -0.211175 2.303215
v 2.179406 -0.279598 2.193526
v 2.380253 -0.341845 2.076159
v 2.592597 -0.393387 1.951928
v -0.361629 -0.073923 4.119802
v -0.290266 0.178828 4.062944
v -0.177672 0.359092 3.973238
v -0.029445 0.474829 3.855142
v 0.148820 0.533998 3.713113
v 0.351527 0.544560 3.551612
v 0.573077 0.514474 3.375098
v 0.807876 0.451699 3.188027
v 1.050328 0.364194 2.994860
v 1.294834 0.259920 2.800056
v 1.535800 0.146836 2.608073
v 1.767627 0.032902 2.423369
v 1.984721 -0.073923 2.250405
v 2.125914 -0.141107 2.138565
v 2.282918 -0.211175 2.015192
v 2.453954 -0.279598 1.881350
v 2.637241 -0.341845 1.738102
v 0.194281 -0.073923 4.131077
v 0.257372 0.178828 4.065161
v 0.356914 0.359092 3.961162
v 0.487960 0.474829 3.824249
v 0.645562 0.533998 3.659591
v 0.824772 0.544560 3.472358
v 1.020642 0.514474 3.267720
v 1.228225 0.451699 3.050843
v 1.442573 0.364194 2.826899
v 1.658738 0.259920 2.601056
v 1.871773 0.146836 2.378485
v 2.076728 0.032902 2.164352
v 2.268658 -0.073923 1.963830
v 2.393573 -0.141107 1.834061
v 2.532608 -0.211175 1.690742
v 2.684144 -0.279598 1.535167
v 0.746678 -0.073923 4.067679
v 0.800357 0.178828 3.993896
v 0.885049 0.359092 3.877484
v 0.996545 0.474829 3.724229
v 1.130635 0.533998 3.539918
v 1.283109 0.544560 3.330338
v 1.449758 0.514474 3.101274
v 1.626372 0.451699 2.858512
v 1.808743 0.364194 2.607839
v 1.992659 0.259920 2.355040
v 2.173912 0.146836 2.105903
v 2.348291 0.032902 1.866213
v 2.511588 -0.073923 1.641758
v 2.617965 -0.141107 1.496404
v 2.736519 -0.211175 1.335731
v 1.285579 -0.073923 3.930754
v 1.328875 0.178828 3.850437
v 1.397186 0.359092 3.723716
v 1.487116 0.474829 3.556891
v 1.595270 0.533998 3.356258
v 1.718253 0.544560 3.128119
v 1.852668 0.514474 2.878771
v 1.995122 0.451699 2.614511
v 2.142218 0.364194 2.341640
v 2.290560 0.259920 2.066455
v 2.436755 0.146836 1.795256
v 2.577406 0.032902 1.534341
v 2.709118 -0.073923 1.290009
v 2.795036 -0.141107 1.131699
v 2.890965 -0.211175 0.956574
v 1.801241 -0.073923 3.722777
v 1.833372 0.178828 3.637378
v 1.884067 0.359092 3.502639
v 1.950806 0.474829 3.325258
v 2.031069 0.533998 3.111931
v 2.122337 0.544560 2.869356
v 2.222090 0.514474 2.604231
v 2.327807 0.451699 2.323251
v 2.436970 0.364194 2.033113
v 2.547058 0.259920 1.740517
v 2.655552 0.146836 1.452158
v 2.759932 0.032902 1.174733
v 2.857678 -0.073923 0.914941
v 2.921583 -0.141107 0.746538
v 2.284345 -0.073923 3.447508
v 2.304729 0.178828 3.358570
v 2.336892 0.359092 3.218249
v 2.379233 0.474829 3.033518
v 2.430155 0.533998 2.811353
v 2.488058 0.544560 2.558727
v 2.551345 0.514474 2.282617
v 2.618415 0.451699 1.989995
v 2.687672 0.364194 1.687837
v 2.757515 0.259920 1.383117
v 2.826348 0.146836 1.082811
v 2.892570 0.032902 0.793892
v 2.954583 -0.073923 0.523336
v 2.726157 -0.073923 3.109921
v 2.734427 0.178828 3.019053
v 2.747475 0.359092 2.875686
v 2.764654 0.474829 2.686945
v 2.785313 0.533998 2.459956
v 2.808806 0.544560 2.201847
v 2.834482 0.514474 1.919743
v 2.861693 0.451699 1.620769
v 2.889791 0.364194 1.312051
v 2.918128 0.259920 1.000716
v 2.946054 0.146836 0.693890
v 2.972921 0.032902 0.398700
v 2.998081 -0.073923 0.122271
v 3.118691 -0.073923 2.716120
v 3.114697 0.178828 2.624964
v 3.108396 0.359092 2.481142
v 3.100101 0.474829 2.291802
v 3.090125 0.533998 2.064094
v 3.078781 0.544560 1.805166
v 3.066383 0.514474 1.522167
v 3.053244 0.451699 1.222245
v 3.039676 0.364194 0.912549
v 3.025993 0.259920 0.600227
v 3.012508 0.146836 0.292428
v 2.999535 0.032902 -0.003699
v 2.987386 -0.073923 -0.281005
v 0.000000 0.000000 0.000000
v 0.174116 -0.067184 -0.046122
v 0.367335 -0.137252 -0.096499
v 0.577598 -0.205675 -0.150867
v 0.802852 -0.267922 -0.208964
v 1.041040 -0.319463 -0.270527
v 1.290105 -0.355770 -0.335291
v 1.547992 -0.372312 -0.402994
v 1.812645 -0.364558 -0.473372
v 2.082009 -0.327980 -0.546162
v 2.354026 -0.258048 -0.621101
v 2.626642 -0.150231 -0.697926
v 2.897800 0.000000 -0.776372
v 0.000000 0.000000 0.000000
v 0.156249 -0.067184 -0.089610
v 0.329848 -0.137252 -0.188274
v 0.518879 -0.205675 -0.295205
v 0.721424 -0.267922 -0.409616
v 0.935565 -0.319463 -0.530722
v 1.159385 -0.355770 -0.657736
v 1.390966 -0.372312 -0.789871
v 1.628391 -0.364558 -0.926342
v 1.869740 -0.327980 -1.066361
v 2.113097 -0.258048 -1.209143
v 2.356544 -0.150231 -1.353900
v 2.598164 0.000000 -1.499848
v 0.000000 0.000000 0.000000
v 0.127736 -0.067184 -0.126993
v 0.269887 -0.137252 -0.267222
v 0.424806 -0.205675 -0.419429
v 0.590842 -0.267922 -0.582360
v 0.766348 -0.319463 -0.754758
v 0.949673 -0.355770 -0.935367
v 1.139169 -0.372312 -1.122932
v 1.333188 -0.364558 -1.316197
v 1.530080 -0.327980 -1.513905
v 1.728196 -0.258048 -1.714801
v 1.925888 -0.150231 -1.917630
v 2.121506 0.000000 -2.121134
v 0.000000 0.000000 0.000000
v 0.090520 -0.067184 -0.155724
v 0.191539 -0.137252 -0.327963
v 0.301790 -0.205675 -0.515077
v 0.420005 -0.267922 -0.715425
v 0.544916 -0.319463 -0.927370
v 0.675256 -0.355770 -1.149269
v 0.809757 -0.372312 -1.379484
v 0.947151 -0.364558 -1.616375
v 1.086171 -0.327980 -1.858302
v 1.225548 -0.258048 -2.103625
v 1.364014 -0.150231 -2.350705
v 1.500304 0.000000 -2.597901
v 0.000000 0.000000 0.000000
v 0.047136 -0.067184 -0.173845
v 0.100140 -0.137252 -0.366359
v 0.158212 -0.205675 -0.575630
v 0.220551 -0.267922 -0.799747
v 0.286358 -0.319463 -1.036797
v 0.354832 -0.355770 -1.284868
v 0.425174 -0.372312 -1.542048
v 0.496582 -0.364558 -1.806425
v 0.568257 -0.327980 -2.076087
v 0.639398 -0.258048 -2.349122
v 0.709206 -0.150231 -2.623619
v 0.776881 0.000000 -2.897664
v 0.000000 0.000000 0.000000
v 0.000541 -0.067184 -0.180121
v 0.001918 -0.137252 -0.379793
v 0.003854 -0.205675 -0.596964
v 0.006071 -0.267922 -0.829579
v 0.008289 -0.319463 -1.075583
v 0.010233 -0.355770 -1.332924
v 0.011622 -0.372312 -1.599546
v 0.012179 -0.364558 -1.873397
v 0.011626 -0.327980 -2.152422
v 0.009685 -0.258048 -2.434566
v 0.006077 -0.150231 -2.717777
v 0.000526 0.000000 -3.000000
v 0.000000 0.000000 0.000000
v -0.046091 -0.067184 -0.174125
v -0.096434 -0.137252 -0.367352
v -0.150766 -0.205675 -0.577625
v -0.208824 -0.267922 -0.802889
v -0.270344 -0.319463 -1.041087
v -0.335065 -0.355770 -1.290164
v -0.402722 -0.372312 -1.548063
v -0.473054 -0.364558 -1.812728
v -0.545797 -0.327980 -2.082105
v -0.620688 -0.258048 -2.354135
v -0.697465 -0.150231 -2.626764
v -0.775864 0.000000 -2.897936
v 0.000000 0.000000 0.000000
v -0.089583 -0.067184 -0.156265
v -0.188216 -0.137252 -0.329881
v -0.295114 -0.205675 -0.518930
v -0.409490 -0.267922 -0.721495
v -0.530558 -0.319463 -0.935658
v -0.657533 -0.355770 -1.159500
v -0.789627 -0.372312 -1.391105
v -0.926056 -0.364558 -1.628553
v -1.066033 -0.327980 -1.869927
v -1.208772 -0.258048 -2.113309
v -1.353487 -0.150231 -2.356781
v -1.499393 0.000000 -2.598427
v 0.000000 0.000000 0.000000
v -0.126971 -0.067184 -0.127758
v -0.267174 -0.137252 -0.269934
v -0.419355 -0.205675 -0.424879
v -0.582256 -0.267922 -0.590944
v -0.754623 -0.319463 -0.766480
v -0.935201 -0.355770 -0.949837
v -1.122733 -0.372312 -1.139366
v -1.315963 -0.364558 -1.333419
v -1.513637 -0.327980 -1.530345
v -1.714498 -0.258048 -1.728496
v -1.917292 -0.150231 -1.926224
v -2.120762 0.000000 -2.121878
v 0.000000 0.000000 0.000000
v -0.155708 -0.067184 -0.090547
v -0.327929 -0.137252 -0.191596
v -0.515024 -0.205675 -0.301880
v -0.715352 -0.267922 -0.420130
v -0.927274 -0.319463 -0.545079
v -1.149151 -0.355770 -0.675458
v -1.379342 -0.372312 -0.809999
v -1.616209 -0.364558 -0.947435
v -1.858112 -0.327980 -1.086496
v -2.103410 -0.258048 -1.225916
v -2.350466 -0.150231 -1.364426
v -2.597638 0.000000 -1.500759
v 0.000000 0.000000 0.000000
v -0.173836 -0.067184 -0.047166
v -0.366341 -0.137252 -0.100204
v -0.575602 -0.205675 -0.158313
v -0.799708 -0.267922 -0.220691
v -1.036746 -0.319463 -0.286540
v -1.284805 -0.355770 -0.355058
v -1.541973 -0.372312 -0.425444
v -1.806338 -0.364558 -0.496899
v -2.075988 -0.327980 -0.568621
v -2.349010 -0.258048 -0.639810
v -2.623494 -0.150231 -0.709666
v -2.897528 0.000000 -0.777389
v 0.000000 0.000000 0.006601
v -0.180121 -0.067184 0.006028
v -0.379793 -0.137252 0.004616
v -0.596963 -0.205675 0.002642
v -0.829577 -0.267922 0.000384
v -1.075582 -0.319463 -0.001878
v -1.332922 -0.355770 -0.003866
v -1.599544 -0.372312 -0.005302
v -1.873395 -0.364558 -0.005907
v -2.152420 -0.327980 -0.005403
v -2.434564 -0.258048 -0.003511
v -2.717776 -0.150231 0.000047
vn 0.3004 0.9538 0.0085
vn 0.2716 0.9623 0.0101
vn -0.3550 0.9340 0.0408
vn -0.9390 0.3393 0.0554
vn 0.2584 0.9660 0.0109
vn 0.3164 0.9486 0.0076
vn -0.4687 0.8822 0.0452
vn -0.7802 0.6231 0.0544
vn 0.2049 0.9787 0.0139
vn 0.3446 0.9387 0.0059
vn -0.5206 0.8525 0.0471
vn 0.1396 0.9901 0.0174
vn 0.3588 0.9334 0.0051
vn -0.2511 0.9673 0.0364
vn 0.0618 0.9979 0.0215
vn 0.3592 0.9333 0.0050
vn -0.0407 0.9988 0.0267
vn -0.0283 0.9993 0.0261
vn 0.3495 0.9369 0.0056
vn 0.1056 0.9942 0.0192
vn -0.1299 0.9911 0.0309
vn 0.3311 0.9436 0.0067
vn 0.2047 0.9787 0.0139
vn -0.2402 0.9701 0.0359
vn -0.1432 -0.2159 -0.9659
vn 0.0923 0.9792 -0.1805
vn -0.1918 -0.3892 -0.9010
vn 0.1640 0.9061 -0.3901
vn -0.2255 -0.5658 -0.7931
vn 0.1868 0.7957 -0.5762
vn -0.6143 0.2390 0.7520
vn -0.2331 -0.7287 -0.6439
vn 0.1669 0.6477 -0.7434
vn -0.5438 0.4696 0.6955
vn -0.2081 -0.8594 -0.4671
vn 0.1093 0.4577 -0.8823
vn -0.4071 0.7246 0.5561
vn -0.1511 -0.9471 -0.2830
vn 0.0238 0.2314 -0.9726
vn -0.2180 0.9200 0.3258
vn -0.0686 -0.9916 -0.1093
vn -0.0709 -0.0097 -0.9974
vn -0.0367 0.9974 0.0616
vn -0.5079 0.2390 0.8276
vn -0.3174 -0.7287 -0.6069
vn 0.0657 0.6477 -0.7590
vn -0.4456 0.4696 0.7622
vn -0.2689 -0.8594 -0.4350
vn -0.0100 0.4577 -0.8890
vn -0.3288 0.7246 0.6056
vn -0.1877 -0.9471 -0.2601
vn -0.1068 0.2314 -0.9670
vn -0.1723 0.9200 0.3520
vn -0.2041 -0.0097 -0.9789
vn -0.0281 0.9974 0.0660
vn -0.2715 -0.2159 -0.9379
vn 0.0673 0.9792 -0.1913
vn -0.3109 -0.3892 -0.8671
vn 0.1102 0.9061 -0.4086
vn -0.3298 -0.5658 -0.7557
vn 0.1078 0.7957 -0.5960
vn -0.1235 0.9200 0.3720
vn -0.3336 -0.0097 -0.9427
vn -0.0190 0.9974 0.0692
vn -0.3948 -0.2159 -0.8930
vn 0.0410 0.9792 -0.1985
vn -0.4244 -0.3892 -0.8176
vn 0.0544 0.9061 -0.4196
vn -0.4282 -0.5658 -0.7046
vn 0.0269 0.7957 -0.6051
vn -0.3923 0.2390 0.8883
vn -0.3959 -0.7287 -0.5588
vn -0.0367 0.6477 -0.7610
vn -0.3394 0.4696 0.8151
vn -0.3248 -0.8594 -0.3950
vn -0.1292 0.4577 -0.8797
vn -0.2446 0.7246 0.6443
vn -0.2356 0.2314 -0.9439
vn -0.5302 -0.3892 -0.7532
vn -0.0024 0.9061 -0.4232
vn -0.5188 -0.5658 -0.6408
vn -0.0545 0.7957 -0.6033
vn -0.2696 0.2390 0.9329
vn -0.4673 -0.7287 -0.5006
vn -0.1384 0.6477 -0.7492
vn -0.2270 0.4696 0.8532
vn -0.3748 -0.8594 -0.3479
vn -0.2460 0.4577 -0.8544
vn -0.1559 0.7246 0.6713
vn -0.3601 0.2314 -0.9038
vn -0.0725 0.9200 0.3852
vn -0.4570 -0.0097 -0.8894
vn -0.0095 0.9974 0.0711
vn -0.5111 -0.2159 -0.8320
vn 0.0140 0.9792 -0.2023
vn -0.1105 0.4696 0.8759
vn -0.3584 0.4577 -0.8136
vn -0.0645 0.7246 0.6861
vn -0.4781 0.2314 -0.8473
vn -0.0202 0.9200 0.3914
vn -0.5722 -0.0097 -0.8201
vn 0.0001 0.9974 0.0717
vn -0.6180 -0.2159 -0.7559
vn -0.0133 0.9792 -0.2023
vn -0.6265 -0.3892 -0.6753
vn -0.0591 0.9061 -0.4190
vn -0.6001 -0.5658 -0.5654
vn -0.1349 0.7957 -0.5905
vn -0.1420 0.2390 0.9606
vn -0.5302 -0.7287 -0.4334
vn -0.2377 0.6477 -0.7238
vn 0.0097 0.9974 0.0711
vn -0.7139 -0.2159 -0.6662
vn -0.0403 0.9792 -0.1987
vn -0.7114 -0.3892 -0.5852
vn -0.1148 0.9061 -0.4073
vn -0.6705 -0.5658 -0.4798
vn -0.2129 0.7957 -0.5670
vn -0.0119 0.2390 0.9710
vn -0.3326 0.6477 -0.6854
vn 0.0080 0.4696 0.8828
vn -0.4643 0.4577 -0.7582
vn 0.0281 0.7246 0.6886
vn -0.5874 0.2314 -0.7755
vn 0.0325 0.9200 0.3906
vn -0.6770 -0.0097 -0.7359
vn -0.2871 0.7957 -0.5334
vn 0.1185 0.2390 0.9638
vn -0.4216 0.6477 -0.6346
vn 0.1264 0.4696 0.8738
vn -0.5618 0.4577 -0.6891
vn 0.1202 0.7246 0.6786
vn -0.6861 0.2314 -0.6897
vn 0.0846 0.9200 0.3827
vn -0.7696 -0.0097 -0.6384
vn 0.0192 0.9974 0.0691
vn -0.7968 -0.2159 -0.5644
vn -0.0666 0.9792 -0.1915
vn -0.7835 -0.3892 -0.4844
vn -0.1684 0.9061 -0.3882
vn 0.2102 0.7246 0.6563
vn -0.7724 0.2314 -0.5914
vn 0.1352 0.9200 0.3679
vn -0.8483 -0.0097 -0.5294
vn 0.0283 0.9974 0.0659
vn -0.8653 -0.2159 -0.4524
vn -0.0916 0.9792 -0.1808
vn -0.8414 -0.3892 -0.3750
vn -0.2189 0.9061 -0.3621
vn -0.3560 0.7957 -0.4900
vn 0.2467 0.2390 0.9392
vn -0.5029 0.6477 -0.5723
vn 0.2425 0.4696 0.8489
vn -0.6492 0.4577 -0.6075
vn -0.1151 0.9792 -0.1669
vn -0.2655 0.9061 -0.3295
vn -0.4185 0.7957 -0.4378
vn 0.3704 0.2390 0.8976
vn -0.5751 0.6477 -0.4997
vn 0.3542 0.4696 0.8087
vn -0.7248 0.4577 -0.5149
vn 0.2963 0.7246 0.6222
vn -0.8448 0.2314 -0.4825
vn 0.1833 0.9200 0.3464
vn -0.9117 -0.0097 -0.4108
vn 0.0369 0.9974 0.0615
vn -0.9182 -0.2159 -0.3323
vn -0.6369 0.6477 -0.4180
vn 0.4594 0.4696 0.7539
vn -0.7873 0.4577 -0.4130
vn 0.3771 0.7246 0.5768
vn -0.9019 0.2314 -0.3648
vn 0.2281 0.9200 0.3187
vn -0.9585 -0.0097 -0.2848
vn 0.0448 0.9974 0.0560
vn -0.1364 0.9792 -0.1500
vn -0.3073 0.9061 -0.2909
vn -0.4735 0.7957 -0.3777
vn 0.4875 0.2390 0.8398
vn 0.2688 0.9200 0.2852
vn -0.9881 -0.0097 -0.1537
vn 0.0519 0.9974 0.0495
vn -0.1553 0.9792 -0.1303
vn -0.3436 0.9061 -0.2470
vn -0.5199 0.7957 -0.3108
vn 0.5957 0.2390 0.7668
vn -0.6873 0.6477 -0.3288
vn 0.5564 0.4696 0.6855
vn -0.8356 0.4577 -0.3037
vn 0.4511 0.7246 0.5210
vn -0.9427 0.2314 -0.2405
vn -0.3736 0.9061 -0.1987
vn -0.8427 -0.4617 -0.2769
vn -0.5569 0.7957 -0.2383
vn -0.5390 -0.7623 -0.3584
vn 0.6932 0.2390 0.6799
vn -0.7252 0.6477 -0.2336
vn -0.6811 -0.6189 -0.3912
vn 0.6433 0.4696 0.6046
vn -0.8688 0.4577 -0.1888
vn 0.5169 0.7246 0.4558
vn -0.0746 -0.9926 -0.0961
vn -0.9664 0.2314 -0.1119
vn 0.3047 0.9200 0.2466
vn -0.1998 -0.9534 -0.2262
vn -0.9998 -0.0097 -0.0198
vn 0.0581 0.9974 0.0421
vn -0.3832 -0.8765 -0.2913
vn -0.1714 0.9792 -0.1083
vn -0.9242 -0.3058 -0.2287
vn -0.4691 0.8810 0.0613
vn 0.3310 0.9427 -0.0422
vn -0.1301 0.9914 0.0164
vn 0.1398 0.9900 -0.0173
vn 0.3005 0.9530 -0.0378
vn -0.2406 0.9701 0.0306
vn 0.0620 0.9980 -0.0077
vn 0.2586 0.9655 -0.0323
vn -0.3555 0.9335 0.0458
vn 0.3492 0.9360 -0.0450
vn -0.0283 0.9996 0.0035
vn 0.2052 0.9784 -0.0255
vn -0.1214 0.9914 0.0495
vn 0.1306 0.9900 -0.0529
vn 0.2805 0.9530 -0.1143
vn -0.2245 0.9701 0.0918
vn 0.0579 0.9980 -0.0235
vn 0.2414 0.9655 -0.0981
vn -0.3316 0.9335 0.1362
vn 0.3257 0.9360 -0.1338
vn -0.0264 0.9996 0.0107
vn 0.1916 0.9784 -0.0777
vn -0.4372 0.8810 0.1806
vn 0.3088 0.9427 -0.1264
vn 0.2800 0.9360 -0.2135
vn -0.0228 0.9996 0.0172
vn 0.1650 0.9784 -0.1246
vn -0.3756 0.8810 0.2876
vn 0.2656 0.9427 -0.2020
vn -0.1045 0.9914 0.0792
vn 0.1124 0.9900 -0.0849
vn 0.2413 0.9530 -0.1830
vn -0.1931 0.9701 0.1468
vn 0.0498 0.9980 -0.0377
vn 0.2078 0.9655 -0.1572
vn -0.2850 0.9335 0.2174
vn -0.1485 0.9701 0.1917
vn 0.0384 0.9980 -0.0493
vn 0.1600 0.9655 -0.2056
vn -0.2191 0.9335 0.2837
vn 0.2152 0.9360 -0.2787
vn -0.0175 0.9996 0.0225
vn 0.1271 0.9784 -0.1631
vn -0.2884 0.8810 0.3750
vn 0.2043 0.9427 -0.2638
vn -0.0804 0.9914 0.1035
vn 0.0866 0.9900 -0.1111
vn 0.1858 0.9530 -0.2392
vn 0.1290 0.9427 -0.3077
vn -0.0509 0.9914 0.1208
vn 0.0549 0.9900 -0.1297
vn 0.1175 0.9530 -0.2791
vn -0.0938 0.9701 0.2237
vn 0.0243 0.9980 -0.0575
vn 0.1014 0.9655 -0.2400
vn -0.1382 0.9335 0.3308
vn 0.1357 0.9360 -0.3249
vn -0.0111 0.9996 0.0263
vn 0.0805 0.9784 -0.1904
vn -0.1815 0.8810 0.4368
vn -0.0479 0.9335 0.3553
vn 0.0470 0.9360 -0.3490
vn -0.0039 0.9996 0.0283
vn 0.0285 0.9784 -0.2048
vn -0.0623 0.8810 0.4689
vn 0.0450 0.9427 -0.3306
vn -0.0179 0.9914 0.1299
vn 0.0195 0.9900 -0.1395
vn 0.0413 0.9530 -0.3000
vn -0.0328 0.9701 0.2403
vn 0.0086 0.9980 -0.0619
vn 0.0358 0.9655 -0.2581
vn -0.0378 0.9530 -0.3005
vn 0.0305 0.9701 0.2406
vn -0.0077 0.9980 -0.0620
vn -0.0322 0.9655 -0.2586
vn 0.0457 0.9335 0.3556
vn -0.0449 0.9360 -0.3492
vn 0.0035 0.9996 0.0283
vn -0.0254 0.9784 -0.2052
vn 0.0612 0.8810 0.4691
vn -0.0421 0.9427 -0.3310
vn 0.0163 0.9914 0.1301
vn -0.0173 0.9900 -0.1398
vn 0.1805 0.8810 0.4373
vn -0.1263 0.9427 -0.3088
vn 0.0494 0.9914 0.1214
vn -0.0529 0.9900 -0.1306
vn -0.1142 0.9530 -0.2805
vn 0.0918 0.9701 0.2245
vn -0.0235 0.9980 -0.0579
vn -0.0980 0.9655 -0.2414
vn 0.1362 0.9335 0.3316
vn -0.1338 0.9360 -0.3257
vn 0.0107 0.9996 0.0264
vn -0.0777 0.9784 -0.1916
vn -0.1572 0.9655 -0.2078
vn 0.2173 0.9335 0.2851
vn -0.2135 0.9360 -0.2800
vn 0.0172 0.9996 0.0228
vn -0.1246 0.9784 -0.1650
vn 0.2875 0.8810 0.3756
vn -0.2019 0.9427 -0.2656
vn 0.0792 0.9914 0.1045
vn -0.0849 0.9900 -0.1124
vn -0.1829 0.9530 -0.2414
vn 0.1467 0.9701 0.1931
vn -0.0376 0.9980 -0.0498
vn -0.2392 0.9530 -0.1858
vn 0.1917 0.9701 0.1486
vn -0.0493 0.9980 -0.0384
vn -0.2056 0.9655 -0.1601
vn 0.2837 0.9335 0.2191
vn -0.2787 0.9360 -0.2152
vn 0.0225 0.9996 0.0175
vn -0.1631 0.9784 -0.1271
vn 0.3749 0.8810 0.2884
vn -0.2638 0.9427 -0.2043
vn 0.1035 0.9914 0.0804
vn -0.1111 0.9900 -0.0866
vn -0.1904 0.9784 -0.0806
vn 0.4368 0.8810 0.1816
vn -0.3077 0.9427 -0.1291
vn 0.1208 0.9914 0.0509
vn -0.1297 0.9900 -0.0549
vn -0.2791 0.9530 -0.1176
vn 0.2236 0.9701 0.0939
vn -0.0575 0.9980 -0.0243
vn -0.2400 0.9655 -0.1014
vn 0.3307 0.9335 0.1382
vn -0.3249 0.9360 -0.1358
vn 0.0263 0.9996 0.0111
vn -0.2583 0.9655 -0.0346
vn 0.3553 0.9335 0.0475
vn -0.3503 0.9359 -0.0368
vn 0.0283 0.9996 0.0039
vn -0.2049 0.9784 -0.0278
vn 0.4687 0.8812 0.0619
vn -0.3311 0.9427 -0.0414
vn 0.1299 0.9914 0.0177
vn -0.1396 0.9900 -0.0191
vn -0.3003 0.9530 -0.0393
vn 0.2404 0.9701 0.0325
vn -0.0619 0.9980 -0.0085
vn 0.0006 0.0018 -1.0000
s 0
usemtl spin
f 15//1 40//1 41//1 16//1
f 8//2 33//2 34//2 9//2
f 23//3 48//3 49//3 24//3
f 1//4 26//4 27//4 2//4
f 16//5 41//5 42//5 17//5
f 9//6 34//6 35//6 10//6
f 24//7 49//7 50//7 25//7
f 2//8 27//8 28//8 3//8
f 17//9 42//9 43//9 18//9
f 10//10 35//10 36//10 11//10
f 3//11 28//11 29//11 4//11
f 18//12 43//12 44//12 19//12
f 11//13 36//13 37//13 12//13
f 4//14 29//14 30//14 5//14
f 19//15 44//15 45//15 20//15
f 12//16 37//16 38//16 13//16
f 5//17 30//17 31//17 6//17
f 20//18 45//18 46//18 21//18
f 13//19 38//19 39//19 14//19
f 6//20 31//20 32//20 7//20
f 21//21 46//21 47//21 22//21
f 14//22 39//22 40//22 15//22
f 7//23 32//23 33//23 8//23
f 22//24 47//24 48//24 23//24
f 38//25 63//25 64//25 39//25
f 31//26 56//26 57//26 32//26
f 39//27 64//27 65//27 40//27
f 32//28 57//28 58//28 33//28
f 40//29 65//29 66//29 41//29
f 33//30 58//30 59//30 34//30
f 26//31 51//31 52//31 27//31
f 41//32 66//32 67//32 42//32
f 34//33 59//33 60//33 35//33
f 27//34 52//34 53//34 28//34
f 42//35 67//35 68//35 43//35
f 35//36 60//36 61//36 36//36
f 28//37 53//37 54//37 29//37
f 43//38 68//38 69//38 44//38
f 36//39 61//39 62//39 37//39
f 29//40 54//40 55//40 30//40
f 44//41 69//41 70//41 45//41
f 37//42 62//42 63//42 38//42
f 30//43 55//43 56//43 31//43
f 51//44 71//44 72//44 52//44
f 66//45 86//45 87//45 67//45
f 59//46 79//46 80//46 60//46
f 52//47 72//47 73//47 53//47
f 67//48 87//48 88//48 68//48
f 60//49 80//49 81//49 61//49
f 53//50 73//50 74//50 54//50
f 68//51 88//51 89//51 69//51
f 61//52 81//52 82//52 62//52
f 54//53 74//53 75//53 55//53
f 62//54 82//54 83//54 63//54
f 55//55 75//55 76//55 56//55
f 63//56 83//56 84//56 64//56
f 56//57 76//57 77//57 57//57
f 64//58 84//58 85//58 65//58
f 57//59 77//59 78//59 58//59
f 65//60 85//60 86//60 66//60
f 58//61 78//61 79//61 59//61
f 74//62 93//62 94//62 75//62
f 82//63 101//63 102//63 83//63
f 75//64 94//64 95//64 76//64
f 83//65 102//65 103//65 84//65
f 76//66 95//66 96//66 77//66
f 84//67 103//67 104//67 85//67
f 77//68 96//68 97//68 78//68
f 85//69 104//69 105//69 86//69
f 78//70 97//70 98//70 79//70
f 71//71 90//71 91//71 72//71
f 86//72 105//72 106//72 87//72
f 79//73 98//73 99//73 80//73
f 72//74 91//74 92//74 73//74
f 87//75 106//75 107//75 88//75
f 80//76 99//76 100//76 81//76
f 73//77 92//77 93//77 74//77
f 81//78 100//78 101//78 82//78
f 103//79 121//79 122//79 104//79
f 96//80 114//80 115//80 97//80
f 104//81 122//81 123//81 105//81
f 97//82 115//82 116//82 98//82
f 90//83 108//83 109//83 91//83
f 105//84 123//84 124//84 106//84
f 98//85 116//85 117//85 99//85
f 91//86 109//86 110//86 92//86
f 106//87 124//87 125//87 107//87
f 99//88 117//88 118//88 100//88
f 92//89 110//89 111//89 93//89
f 100//90 118//90 119//90 101//90
f 93//91 111//91 112//91 94//91
f 101//92 119//92 120//92 102//92
f 94//93 112//93 113//93 95//93
f 102//94 120//94 121//94 103//94
f 95//95 113//95 114//95 96//95
f 109//96 127//96 128//96 110//96
f 117//97 135//97 136//97 118//97
f 110//98 128//98 129//98 111//98
f 118//99 136//99 137//99 119//99
f 111//100 129//100 130//100 112//100
f 119//101 137//101 138//101 120//101
f 112//102 130//102 131//102 113//102
f 120//103 138//103 139//103 121//103
f 113//104 131//104 132//104 114//104
f 121//105 139//105 140//105 122//105
f 114//106 132//106 133//106 115//106
f 122//107 140//107 141//107 123//107
f 115//108 133//108 134//108 116//108
f 108//109 126//109 127//109 109//109
f 123//110 141//110 142//110 124//110
f 116//111 134//111 135//111 117//111
f 130//112 147//112 148//112 131//112
f 138//113 155//113 156//113 139//113
f 131//114 148//114 149//114 132//114
f 139//115 156//115 157//115 140//115
f 132//116 149//116 150//116 133//116
f 140//117 157//117 158//117 141//117
f 133//118 150//118 151//118 134//118
f 126//119 143//119 144//119 127//119
f 134//120 151//120 152//120 135//120
f 127//121 144//121 145//121 128//121
f 135//122 152//122 153//122 136//122
f 128//123 145//123 146//123 129//123
f 136//124 153//124 154//124 137//124
f 129//125 146//125 147//125 130//125
f 137//126 154//126 155//126 138//126
f 150//127 166//127 167//127 151//127
f 143//128 159//128 160//128 144//128
f 151//129 167//129 168//129 152//129
f 144//130 160//130 161//130 145//130
f 152//131 168//131 169//131 153//131
f 145//132 161//132 162//132 146//132
f 153//133 169//133 170//133 154//133
f 146//134 162//134 163//134 147//134
f 154//135 170//135 171//135 155//135
f 147//136 163//136 164//136 148//136
f 155//137 171//137 172//137 156//137
f 148//138 164//138 165//138 149//138
f 156//139 172//139 173//139 157//139
f 149//140 165//140 166//140 150//140
f 161//141 176//141 177//141 162//141
f 169//142 184//142 185//142 170//142
f 162//143 177//143 178//143 163//143
f 170//144 185//144 186//144 171//144
f 163//145 178//145 179//145 164//145
f 171//146 186//146 187//146 172//146
f 164//147 179//147 180//147 165//147
f 172//148 187//148 188//148 173//148
f 165//149 180//149 181//149 166//149
f 166//150 181//150 182//150 167//150
f 159//151 174//151 175//151 160//151
f 167//152 182//152 183//152 168//152
f 160//153 175//153 176//153 161//153
f 168//154 183//154 184//154 169//154
f 179//155 194//155 195//155 180//155
f 180//156 195//156 196//156 181//156
f 181//157 196//157 197//157 182//157
f 174//158 189//158 190//158 175//158
f 182//159 197//159 198//159 183//159
f 175//160 190//160 191//160 176//160
f 183//161 198//161 199//161 184//161
f 176//162 191//162 192//162 177//162
f 184//163 199//163 200//163 185//163
f 177//164 192//164 193//164 178//164
f 185//165 200//165 201//165 186//165
f 178//166 193//166 194//166 179//166
f 186//167 201//167 202//167 187//167
f 197//168 211//168 212//168 198//168
f 190//169 204//169 205//169 191//169
f 198//170 212//170 213//170 199//170
f 191//171 205//171 206//171 192//171
f 199//172 213//172 214//172 200//172
f 192//173 206//173 207//173 193//173
f 200//174 214//174 215//174 201//174
f 193//175 207//175 208//175 194//175
f 194//176 208//176 209//176 195//176
f 195//177 209//177 210//177 196//177
f 196//178 210//178 211//178 197//178
f 189//179 203//179 204//179 190//179
f 206//180 219//180 220//180 207//180
f 214//181 227//181 228//181 215//181
f 207//182 220//182 221//182 208//182
f 208//183 221//183 222//183 209//183
f 209//184 222//184 223//184 210//184
f 210//185 223//185 224//185 211//185
f 203//186 216//186 217//186 204//186
f 211//187 224//187 225//187 212//187
f 204//188 217//188 218//188 205//188
f 212//189 225//189 226//189 213//189
f 205//190 218//190 219//190 206//190
f 213//191 226//191 227//191 214//191
f 222//192 235//192 236//192 223//192
f 187//193 202//193 188//193
f 223//194 236//194 237//194 224//194
f 142//195 141//195 158//195
f 216//196 229//196 230//196 217//196
f 224//197 237//197 238//197 225//197
f 157//198 173//198 158//198
f 217//199 230//199 231//199 218//199
f 225//200 238//200 239//200 226//200
f 218//201 231//201 232//201 219//201
f 70//202 69//202 89//202
f 226//203 239//203 240//203 227//203
f 219//204 232//204 233//204 220//204
f 89//205 88//205 107//205
f 227//206 240//206 241//206 228//206
f 220//207 233//207 234//207 221//207
f 124//208 142//208 125//208
f 221//209 234//209 235//209 222//209
f 202//210 201//210 215//210
f 25//211 254//211 253//211 24//211
f 15//212 244//212 243//212 14//212
f 22//213 251//213 250//213 21//213
f 19//214 248//214 247//214 18//214
f 16//215 245//215 244//215 15//215
f 23//216 252//216 251//216 22//216
f 20//217 249//217 248//217 19//217
f 17//218 246//218 245//218 16//218
f 24//219 253//219 252//219 23//219
f 14//220 243//220 242//220 13//220
f 21//221 250//221 249//221 20//221
f 18//222 247//222 246//222 17//222
f 251//223 264//223 263//223 250//223
f 248//224 261//224 260//224 247//224
f 245//225 258//225 257//225 244//225
f 252//226 265//226 264//226 251//226
f 249//227 262//227 261//227 248//227
f 246//228 259//228 258//228 245//228
f 253//229 266//229 265//229 252//229
f 243//230 256//230 255//230 242//230
f 250//231 263//231 262//231 249//231
f 247//232 260//232 259//232 246//232
f 254//233 267//233 266//233 253//233
f 244//234 257//234 256//234 243//234
f 256//235 269//235 268//235 255//235
f 263//236 276//236 275//236 262//236
f 260//237 273//237 272//237 259//237
f 267//238 280//238 279//238 266//238
f 257//239 270//239 269//239 256//239
f 264//240 277//240 276//240 263//240
f 261//241 274//241 273//241 260//241
f 258//242 271//242 270//242 257//242
f 265//243 278//243 277//243 264//243
f 262//244 275//244 274//244 261//244
f 259//245 272//245 271//245 258//245
f 266//246 279//246 278//246 265//246
f 278//247 291//247 290//247 277//247
f 275//248 288//248 287//248 274//248
f 272//249 285//249 284//249 271//249
f 279//250 292//250 291//250 278//250
f 269//251 282//251 281//251 268//251
f 276//252 289//252 288//252 275//252
f 273//253 286//253 285//253 272//253
f 280//254 293//254 292//254 279//254
f 270//255 283//255 282//255 269//255
f 277//256 290//256 289//256 276//256
f 274//257 287//257 286//257 273//257
f 271//258 284//258 283//258 270//258
f 283//259 296//259 295//259 282//259
f 290//260 303//260 302//260 289//260
f 287//261 300//261 299//261 286//261
f 284//262 297//262 296//262 283//262
f 291//263 304//263 303//263 290//263
f 288//264 301//264 300//264 287//264
f 285//265 298//265 297//265 284//265
f 292//266 305//266 304//266 291//266
f 282//267 295//267 294//267 281//267
f 289//268 302//268 301//268 288//268
f 286//269 299//269 298//269 285//269
f 293//270 306//270 305//270 292//270
f 305//271 318//271 317//271 304//271
f 295//272 308//272 307//272 294//272
f 302//273 315//273 314//273 301//273
f 299//274 312//274 311//274 298//274
f 306//275 319//275 318//275 305//275
f 296//276 309//276 308//276 295//276
f 303//277 316//277 315//277 302//277
f 300//278 313//278 312//278 299//278
f 297//279 310//279 309//279 296//279
f 304//280 317//280 316//280 303//280
f 301//281 314//281 313//281 300//281
f 298//282 311//282 310//282 297//282
f 310//283 323//283 322//283 309//283
f 317//284 330//284 329//284 316//284
f 314//285 327//285 326//285 313//285
f 311//286 324//286 323//286 310//286
f 318//287 331//287 330//287 317//287
f 308//288 321//288 320//288 307//288
f 315//289 328//289 327//289 314//289
f 312//290 325//290 324//290 311//290
f 319//291 332//291 331//291 318//291
f 309//292 322//292 321//292 308//292
f 316//293 329//293 328//293 315//293
f 313//294 326//294 325//294 312//294
f 332//295 345//295 344//295 331//295
f 322//296 335//296 334//296 321//296
f 329//297 342//297 341//297 328//297
f 326//298 339//298 338//298 325//298
f 323//299 336//299 335//299 322//299
f 330//300 343//300 342//300 329//300
f 327//301 340//301 339//301 326//301
f 324//302 337//302 336//302 323//302
f 331//303 344//303 343//303 330//303
f 321//304 334//304 333//304 320//304
f 328//305 341//305 340//305 327//305
f 325//306 338//306 337//306 324//306
f 337//307 350//307 349//307 336//307
f 344//308 357//308 356//308 343//308
f 334//309 347//309 346//309 333//309
f 341//310 354//310 353//310 340//310
f 338//311 351//311 350//311 337//311
f 345//312 358//312 357//312 344//312
f 335//313 348//313 347//313 334//313
f 342//314 355//314 354//314 341//314
f 339//315 352//315 351//315 338//315
f 336//316 349//316 348//316 335//316
f 343//317 356//317 355//317 342//317
f 340//318 353//318 352//318 339//318
f 349//319 362//319 361//319 348//319
f 356//320 369//320 368//320 355//320
f 353//321 366//321 365//321 352//321
f 350//322 363//322 362//322 349//322
f 357//323 370//323 369//323 356//323
f 347//324 360//324 359//324 346//324
f 354//325 367//325 366//325 353//325
f 351//326 364//326 363//326 350//326
f 358//327 371//327 370//327 357//327
f 348//328 361//328 360//328 347//328
f 355//329 368//329 367//329 354//329
f 352//330 365//330 364//330 351//330
f 364//331 377//331 376//331 363//331
f 371//332 384//332 383//332 370//332
f 361//333 374//333 373//333 360//333
f 368//334 381//334 380//334 367//334
f 365//335 378//335 377//335 364//335
f 362//336 375//336 374//336 361//336
f 369//337 382//337 381//337 368//337
f 366//338 379//338 378//338 365//338
f 363//339 376//339 375//339 362//339
f 370//340 383//340 382//340 369//340
f 360//341 373//341 372//341 359//341
f 367//342 380//342 379//342 366//342
f 376//343 389//343 388//343 375//343
f 383//344 396//344 395//344 382//344
f 373//345 386//345 385//345 372//345
f 380//346 393//346 392//346 379//346
f 377//347 390//347 389//347 376//347
f 384//348 1//348 396//348 383//348
f 374//349 387//349 386//349 373//349
f 381//350 394//350 393//350 380//350
f 378//351 391//351 390//351 377//351
f 375//352 388//352 387//352 374//352
f 382//353 395//353 394//353 381//353
f 379//354 392//354 391//354 378//354
f 1//355 2//355 3//355 4//355 5//355 6//355 7//355 8//355 9//355 10//355 11//355 12//355 372//355 385//355 386//355 387//355 388//355 389//355 390//355 391//355 392//355 393//355 394//355 395//355 396//355
